<svg id="그룹_1" data-name="그룹 1" xmlns="http://www.w3.org/2000/svg" width="165.469" height="26.438" viewBox="0 0 165.469 26.438">
  <metadata><?xpacket begin="﻿" id="W5M0MpCehiHzreSzNTczkc9d"?>
<x:xmpmeta xmlns:x="adobe:ns:meta/" x:xmptk="Adobe XMP Core 5.6-c138 79.159824, 2016/09/14-01:09:01        ">
   <rdf:RDF xmlns:rdf="http://www.w3.org/1999/02/22-rdf-syntax-ns#">
      <rdf:Description rdf:about=""/>
   </rdf:RDF>
</x:xmpmeta>
                                                                                                    
                                                                                                    
                                                                                                    
                                                                                                    
                                                                                                    
                                                                                                    
                                                                                                    
                                                                                                    
                                                                                                    
                                                                                                    
                                                                                                    
                                                                                                    
                                                                                                    
                                                                                                    
                                                                                                    
                                                                                                    
                                                                                                    
                                                                                                    
                                                                                                    
                                                                                                    
                           
<?xpacket end="w"?></metadata>
<defs>
    <style>
      .cls-1 {
        fill-rule: evenodd;
      }
    </style>
  </defs>
  <path id="패스_1" data-name="패스 1" class="cls-1" d="M295.063,106.979H289.3V98.947a6.425,6.425,0,0,0-.439-2.869,2.1,2.1,0,0,0-1.945-1.137,2.453,2.453,0,0,0-2.208,1.242,5.408,5.408,0,0,0-.543,2.764v8.032H278.4V98.947a6.687,6.687,0,0,0-.351-2.729,2.305,2.305,0,0,0-2.155-1.26,2.416,2.416,0,0,0-2.1,1.085,2.573,2.573,0,0,0-.4,1.059,10.8,10.8,0,0,0-.123,1.845v8.032H267.5V90.718h5.765v2a8.866,8.866,0,0,1,1.861-1.436,7.047,7.047,0,0,1,3.4-.823,6.317,6.317,0,0,1,4,1.244,7.048,7.048,0,0,1,1.544,1.787,6.231,6.231,0,0,1,1.493-1.718,6.346,6.346,0,0,1,3.966-1.332,6.063,6.063,0,0,1,3.247.876,4.484,4.484,0,0,1,2,2.611,9.355,9.355,0,0,1,.281,2.488v10.567Z" transform="translate(-267.5 -81.25)"/>
  <path id="패스_2" data-name="패스 2" class="cls-1" d="M305.051,84.471a3.193,3.193,0,0,1-3.233,3.233,3.088,3.088,0,0,1-2.281-.943,3.135,3.135,0,0,1-.934-2.29A3.224,3.224,0,1,1,305.051,84.471Zm-0.35,22.508h-5.766V90.718H304.7v16.261Z" transform="translate(-267.5 -81.25)"/>
  <path id="패스_3" data-name="패스 3" class="cls-1" d="M325.78,106.979h-5.765V98.755a5.572,5.572,0,0,0-.487-2.852,2.435,2.435,0,0,0-2.142-1.032,2.983,2.983,0,0,0-2.2.888,3.432,3.432,0,0,0-.8,2.511v8.709h-5.765V90.718h5.765v2.049a7.405,7.405,0,0,1,1.837-1.63,6.868,6.868,0,0,1,3.412-.77,6.3,6.3,0,0,1,4.269,1.42,6.033,6.033,0,0,1,1.872,4.836v10.356Z" transform="translate(-267.5 -81.25)"/>
  <path id="패스_4" data-name="패스 4" class="cls-1" d="M335.8,84.471A3.192,3.192,0,0,1,332.57,87.7a3.089,3.089,0,0,1-2.281-.943,3.136,3.136,0,0,1-.935-2.29A3.225,3.225,0,1,1,335.8,84.471Zm-0.351,22.508h-5.765V90.718h5.765v16.261Z" transform="translate(-267.5 -81.25)"/>
  <path id="패스_5" data-name="패스 5" class="cls-1" d="M349.084,95.431h-3.276v11.548h-5.765V95.431H338.15V90.718h1.893V85.829h5.765v4.889h3.276v4.713Z" transform="translate(-267.5 -81.25)"/>
  <path id="패스_6" data-name="패스 6" class="cls-1" d="M378.767,106.979H373V98.947a6.432,6.432,0,0,0-.437-2.869,2.1,2.1,0,0,0-1.945-1.137,2.452,2.452,0,0,0-2.208,1.242,5.408,5.408,0,0,0-.543,2.764v8.032H362.1V98.947a6.7,6.7,0,0,0-.351-2.729,2.306,2.306,0,0,0-2.155-1.26,2.415,2.415,0,0,0-2.1,1.085,2.559,2.559,0,0,0-.4,1.059,10.8,10.8,0,0,0-.123,1.845v8.032h-5.764V90.718h5.764v2a8.917,8.917,0,0,1,1.861-1.436,7.056,7.056,0,0,1,3.405-.823,6.319,6.319,0,0,1,4,1.244,7.029,7.029,0,0,1,1.544,1.787,6.245,6.245,0,0,1,1.492-1.718,6.351,6.351,0,0,1,3.967-1.332,6.062,6.062,0,0,1,3.246.876,4.482,4.482,0,0,1,2,2.611,9.359,9.359,0,0,1,.28,2.488v10.567Z" transform="translate(-267.5 -81.25)"/>
  <path id="패스_7" data-name="패스 7" class="cls-1" d="M399.988,101.039a5.858,5.858,0,0,1-4.294,6.027,13.533,13.533,0,0,1-4.363.613q-5.064,0-7.272-2.488a6.018,6.018,0,0,1-1.4-4.152V90.718h5.764v9.217a3.032,3.032,0,0,0,.732,2.243,3.435,3.435,0,0,0,4.337,0,3.027,3.027,0,0,0,.731-2.243V90.718h5.766v10.321Z" transform="translate(-267.5 -81.25)"/>
  <path id="패스_8" data-name="패스 8" class="cls-1" d="M413.6,95.431h-3.277v11.548H404.56V95.431h-1.892V90.718h1.892V85.829h5.766v4.889H413.6v4.713Z" transform="translate(-267.5 -81.25)"/>
  <path id="패스_9" data-name="패스 9" class="cls-1" d="M432.982,99.917H420.91q0,3.661,3.519,3.663a3.059,3.059,0,0,0,2.753-1.543h5.573a7.507,7.507,0,0,1-1.963,3.407,8.871,8.871,0,0,1-6.291,2.183q-5.01,0-7.534-3.049a8.4,8.4,0,0,1-1.893-5.554,8.7,8.7,0,0,1,2.365-6.326,8.879,8.879,0,0,1,6.677-2.435q5.308,0,7.587,3.862a9.79,9.79,0,0,1,1.279,5.055v0.738ZM427.6,96.641a3.088,3.088,0,0,0-3.259-2.751,3.082,3.082,0,0,0-3.277,2.751H427.6Z" transform="translate(-267.5 -81.25)"/>
</svg>
